{"title":"Heropanti (2014) - 720p - DVDRip - Hindi - x264 - AC3 - 5.1 - ES","uid":10762958,"size":1193445085,"categoryP":"video","categoryS":"movies_dvdr","magnet":"?xt=urn:btih:0238500bddc264094dc7c7c01630bc59f2e6628f&amp;dn=Heropanti+%282014%29+-+720p+-+DVDRip+-+Hindi+-+x264+-+AC3+-+5.1+-+ES&amp;tr=udp%3A%2F%2Ftracker.openbittorrent.com%3A80&amp;tr=udp%3A%2F%2Fopen.demonii.com%3A1337&amp;tr=udp%3A%2F%2Ftracker.coppersurfer.tk%3A6969&amp;tr=udp%3A%2F%2Fexodus.desync.com%3A6969","seeders":7,"leechers":2,"uploader":"inovai","files":5,"time":1407991544,"description":"Cover:\n &lt;a href=&quot;\nhttp://forum.primetimeshow.in/viewtopic.php?f=7&amp;t=578&quot; rel=&quot;nofollow&quot; target=&quot;_NEW&quot;&gt;\nhttp://forum.primetimeshow.in/viewtopic.php?f=7&amp;t=578&lt;/a&gt;\n\nGENRE: Action | Romance\n\nScreens:\n &lt;a href=&quot;\nhttp://img.primetimeshow.in/share.php?id=CE2C_53EC21D9&quot; rel=&quot;nofollow&quot; target=&quot;_NEW&quot;&gt;\nhttp://img.primetimeshow.in/share.php?id=CE2C_53EC21D9&lt;/a&gt;\n &lt;a href=&quot;\nhttp://img.primetimeshow.in/share.php?id=4EC0_53EC21D9&quot; rel=&quot;nofollow&quot; target=&quot;_NEW&quot;&gt;\nhttp://img.primetimeshow.in/share.php?id=4EC0_53EC21D9&lt;/a&gt;\n &lt;a href=&quot;\nhttp://img.primetimeshow.in/share.php?id=999E_53EC21D9&quot; rel=&quot;nofollow&quot; target=&quot;_NEW&quot;&gt;\nhttp://img.primetimeshow.in/share.php?id=999E_53EC21D9&lt;/a&gt;\n &lt;a href=&quot;\nhttp://img.primetimeshow.in/share.php?id=A992_53EC21D9&quot; rel=&quot;nofollow&quot; target=&quot;_NEW&quot;&gt;\nhttp://img.primetimeshow.in/share.php?id=A992_53EC21D9&lt;/a&gt;\n &lt;a href=&quot;\nhttp://img.primetimeshow.in/share.php?id=F31B_53EC21D9&quot; rel=&quot;nofollow&quot; target=&quot;_NEW&quot;&gt;\nhttp://img.primetimeshow.in/share.php?id=F31B_53EC21D9&lt;/a&gt;\n\nGeneral\nUnique ID : 203325721973461481633915072030494835886 (0x98F71C11738277A795E675B2FF6E44AE)\nComplete name : Heropanti (2014) - 720p - DVDRip - Hindi - x264 - AC3 - 5.1 - ESubs - TeamTNT ExClusive.mkv\nFormat : Matroska\nFormat version : Version 4 / Version 2\nFile size : 1.10 GiB\nDuration : 2h 24mn\nOverall bit rate : 1 093 Kbps\nMovie name : Heropanti (2014) - 720p - DVDRip - Hindi - x264 - AC3 - 5.1 - ESubs - TeamTNT ExClusive\nEncoded date : UTC 2014-08-13 15:24:43\nWriting application : mkvmerge v7.0.0 ('Where We Going') 32bit built on Jun 9 2014 15:08:34\nWriting library : libebml v1.3.0 + libmatroska v1.4.1\n\n\nVideo\nID : 1\nFormat : AVC\nFormat/Info : Advanced Video Codec\nFormat profile : &lt;a class=&quot;__cf_email__&quot; href=&quot;/cdn-cgi/l/email-protection&quot; data-cfemail=&quot;420a2b252a020e716c73&quot;&gt;[email&amp;#160;protected]&lt;/a&gt;&lt;script cf-hash='f9e31' type=&quot;text/javascript&quot;&gt;\n/* &lt;![CDATA[ */!function(){try{var t=&quot;currentScript&quot;in document?document.currentScript:function(){for(var t=document.getElementsByTagName(&quot;script&quot;),e=t.length;e--;)if(t[e].getAttribute(&quot;cf-hash&quot;))return t[e]}();if(t&amp;&amp;t.previousSibling){var e,r,n,i,c=t.previousSibling,a=c.getAttribute(&quot;data-cfemail&quot;);if(a){for(e=&quot;&quot;,r=parseInt(a.substr(0,2),16),n=2;a.length-n;n+=2)i=parseInt(a.substr(n,2),16)^r,e+=String.fromCharCode(i);e=document.createTextNode(e),c.parentNode.replaceChild(e,c)}}}catch(u){}}();/* ]]&gt; */&lt;/script&gt;\nFormat settings, CABAC : Yes\nFormat settings, ReFrames : 4 frames\nCodec ID : V_MPEG4/ISO/AVC\nDuration : 2h 24mn\nBit rate : 900 Kbps\nWidth : 1 280 pixels\nHeight : 544 pixels\nDisplay aspect ratio : 2.35:1\nFrame rate mode : Constant\nFrame rate : 23.976 fps\nColor space : YUV\nChroma subsampling : 4:2:0\nBit depth : 8 bits\nScan type : Progressive\nBits/(Pixel*Frame) : 0.054\nStream size : 906 MiB (80%)\nTitle : Mafiaking@TeamTNT\nLanguage : Hindi\nDefault : Yes\nForced : No\n\n\nAudio\nID : 2\nFormat : AC-3\nFormat/Info : Audio Coding 3\nMode extension : CM (complete main)\nFormat settings, Endianness : Big\nCodec ID : A_AC3\nDuration : 2h 24mn\nBit rate mode : Constant\nBit rate : 192 Kbps\nChannel(s) : 6 channels\nChannel positions : Front: L C R, Side: L R, LFE\nSampling rate : 48.0 KHz\nBit depth : 16 bits\nCompression mode : Lossy\nStream size : 198 MiB (18%)\nTitle : Mafiaking@TeamTNT\nLanguage : Hindi\nDefault : Yes\nForced : No\n\n\n\n\n\nSAMPLE WITH IN TORRENT\n\nThanks to TeamTNT","torrent":{"xt":"urn:btih:0238500bddc264094dc7c7c01630bc59f2e6628f","amp;dn":"Heropanti+%282014%29+-+720p+-+DVDRip+-+Hindi+-+x264+-+AC3+-+5.1+-+ES","amp;tr":["udp%3A%2F%2Ftracker.openbittorrent.com%3A80","udp%3A%2F%2Fopen.demonii.com%3A1337","udp%3A%2F%2Ftracker.coppersurfer.tk%3A6969","udp%3A%2F%2Fexodus.desync.com%3A6969"],"infoHash":"0238500bddc264094dc7c7c01630bc59f2e6628f","infoHashBuffer":{"type":"Buffer","data":[2,56,80,11,221,194,100,9,77,199,199,192,22,48,188,89,242,230,98,143]},"announce":[],"urlList":[]}}